<mxfile host="Electron" agent="Mozilla/5.0 (X11; Linux x86_64) AppleWebKit/537.36 (KHTML, like Gecko) draw.io/24.7.5 Chrome/126.0.6478.183 Electron/31.3.0 Safari/537.36" version="24.7.5">
  <diagram name="Page-1" id="YLQT_5ULRWEz5XhKWKpl">
    <mxGraphModel dx="1434" dy="870" grid="1" gridSize="10" guides="1" tooltips="1" connect="1" arrows="1" fold="1" page="1" pageScale="1" pageWidth="827" pageHeight="1169" background="#FFFFFF" math="0" shadow="0">
      <root>
        <mxCell id="0" />
        <mxCell id="1" parent="0" />
        <mxCell id="2NR0H8NnNp35vARoC_F7-1" value="Logiciel" style="rounded=0;whiteSpace=wrap;html=1;fillColor=#fad7ac;strokeColor=#b46504;strokeWidth=3;fontColor=#000000;" vertex="1" parent="1">
          <mxGeometry x="350" y="420" width="120" height="60" as="geometry" />
        </mxCell>
        <mxCell id="2NR0H8NnNp35vARoC_F7-5" value="Logiciel" style="rounded=0;whiteSpace=wrap;html=1;fillColor=#fad7ac;strokeColor=#b46504;strokeWidth=3;fontColor=#000000;" vertex="1" parent="1">
          <mxGeometry x="220" y="420" width="120" height="60" as="geometry" />
        </mxCell>
        <mxCell id="2NR0H8NnNp35vARoC_F7-6" value="Logiciel" style="rounded=0;whiteSpace=wrap;html=1;fillColor=#fad7ac;strokeColor=#b46504;strokeWidth=3;fontColor=#000000;" vertex="1" parent="1">
          <mxGeometry x="480" y="420" width="120" height="60" as="geometry" />
        </mxCell>
        <mxCell id="2NR0H8NnNp35vARoC_F7-8" value="OS" style="rounded=0;whiteSpace=wrap;html=1;fillColor=#d0cee2;strokeColor=#56517e;strokeWidth=3;fontColor=#000000;" vertex="1" parent="1">
          <mxGeometry x="220" y="490" width="380" height="60" as="geometry" />
        </mxCell>
        <mxCell id="2NR0H8NnNp35vARoC_F7-9" value="Machine" style="rounded=0;whiteSpace=wrap;html=1;fillColor=#fad9d5;strokeColor=#ae4132;strokeWidth=3;fontColor=#000000;" vertex="1" parent="1">
          <mxGeometry x="220" y="560" width="380" height="60" as="geometry" />
        </mxCell>
        <mxCell id="2NR0H8NnNp35vARoC_F7-10" value="Utilisateur" style="rounded=0;whiteSpace=wrap;html=1;fillColor=#d5e8d4;strokeColor=#82b366;strokeWidth=3;fontColor=#000000;" vertex="1" parent="1">
          <mxGeometry x="220" y="350" width="380" height="60" as="geometry" />
        </mxCell>
        <mxCell id="2NR0H8NnNp35vARoC_F7-11" value="" style="shape=flexArrow;endArrow=classic;startArrow=classic;html=1;rounded=0;fillColor=#647687;strokeColor=#314354;strokeWidth=3;" edge="1" parent="1">
          <mxGeometry width="100" height="100" relative="1" as="geometry">
            <mxPoint x="250" y="620" as="sourcePoint" />
            <mxPoint x="250" y="350" as="targetPoint" />
          </mxGeometry>
        </mxCell>
      </root>
    </mxGraphModel>
  </diagram>
</mxfile>
